<svg width="24px" height="24px" viewBox="0 0 24 24" fill="none" xmlns="http://www.w3.org/2000/svg">
<path d="M16.9989 11.2858V19.1429C16.9989 20.6735 15.7637 22 14.1168 22H5.88213C4.33813 22 3 20.7756 3 19.1429V7.91841C3 6.3878 4.2352 5.06127 5.88213 5.06127H10.72C11.4405 5.06127 12.1611 5.36739 12.7787 5.8776L16.1755 9.24495C16.6901 9.85719 16.9989 10.5715 16.9989 11.2858Z" fill="#d4ebff"/>
<path d="M19.2635 17.9184C18.8517 17.9184 18.44 17.6123 18.44 17.1021V9.75515C18.44 9.44903 18.3371 9.1429 18.0283 8.83678L13.0875 3.93882C12.8816 3.73474 12.4699 3.53066 12.1611 3.53066H7.9408C7.52907 3.6327 7.11733 3.22454 7.11733 2.81637C7.11733 2.40821 7.52907 2.00005 7.9408 2.00005H12.264C12.9845 2.00005 13.7051 2.30617 14.2197 2.81637L19.1605 7.71433C19.6752 8.22454 19.984 8.93882 19.984 9.65311V17.1021C20.0869 17.5103 19.6752 17.9184 19.2635 17.9184Z" fill="#d4ebff"/>
</svg>
